<?xml version="1.0" encoding="UTF-8"?>
<svg id="Layer_2" data-name="Layer 2" xmlns="http://www.w3.org/2000/svg" xmlns:xlink="http://www.w3.org/1999/xlink" viewBox="0 0 1161.88 312">
  <defs>
    <style>
      .cls-1 {
        fill: url(#linear-gradient-2);
      }

      .cls-2 {
        fill: #fff;
      }

      .cls-3 {
        fill: #f16822;
      }

      .cls-4 {
        fill: #f9c02e;
      }

      .cls-5 {
        fill: url(#radial-gradient);
      }

      .cls-6 {
        fill: #f7982c;
      }

      .cls-7 {
        fill: #e01569;
      }

      .cls-8 {
        fill: url(#radial-gradient-2);
      }

      .cls-9 {
        fill: #08b3e0;
      }

      .cls-10 {
        fill: url(#linear-gradient-3);
      }

      .cls-11 {
        fill: url(#linear-gradient);
      }

      .cls-12 {
        fill: url(#linear-gradient-4);
      }

      .cls-13 {
        fill: #37c4ee;
        opacity: .4;
      }
    </style>
    <linearGradient id="linear-gradient" x1="37.24" y1="75.48" x2="42.68" y2="-25.52" gradientTransform="translate(106.8 108.93) rotate(-13.79)" gradientUnits="userSpaceOnUse">
      <stop offset=".46" stop-color="#f1634c"/>
      <stop offset=".49" stop-color="#e7564d"/>
      <stop offset=".55" stop-color="#d03651"/>
      <stop offset=".59" stop-color="#be1e55"/>
    </linearGradient>
    <radialGradient id="radial-gradient" cx="41.94" cy="142.86" fx="41.94" fy="142.86" r="105.7" gradientTransform="translate(106.8 108.93) rotate(-13.79)" gradientUnits="userSpaceOnUse">
      <stop offset="0" stop-color="#20c1e9"/>
      <stop offset="1" stop-color="#0caec7"/>
    </radialGradient>
    <linearGradient id="linear-gradient-2" x1="114.8" y1="207.64" x2="114.8" y2="168.3" gradientTransform="translate(106.8 108.93) rotate(-13.79)" gradientUnits="userSpaceOnUse">
      <stop offset=".3" stop-color="#018ea2"/>
      <stop offset=".41" stop-color="#018a9d"/>
      <stop offset=".53" stop-color="#027f90"/>
      <stop offset=".63" stop-color="#047280"/>
    </linearGradient>
    <linearGradient id="linear-gradient-3" x1="145.41" y1="65.43" x2="-70.24" y2="65.43" gradientTransform="translate(106.8 108.93) rotate(-13.79)" gradientUnits="userSpaceOnUse">
      <stop offset="0" stop-color="#fdd309"/>
      <stop offset="1" stop-color="#f79420"/>
    </linearGradient>
    <linearGradient id="linear-gradient-4" x1="41.31" y1="128.04" x2="42.07" y2="96.18" gradientTransform="translate(106.8 108.93) rotate(-13.79)" gradientUnits="userSpaceOnUse">
      <stop offset=".33" stop-color="#ffdd0f"/>
      <stop offset=".45" stop-color="#fdd810"/>
      <stop offset=".56" stop-color="#f7cb13"/>
      <stop offset=".69" stop-color="#efb618"/>
      <stop offset=".81" stop-color="#e2981f"/>
      <stop offset=".94" stop-color="#d37328"/>
    </linearGradient>
    <radialGradient id="radial-gradient-2" cx="41.92" cy="-37.82" fx="41.92" fy="-37.82" r="111.31" gradientTransform="translate(106.8 108.93) rotate(-13.79)" gradientUnits="userSpaceOnUse">
      <stop offset="0" stop-color="#ed3b87"/>
      <stop offset="1" stop-color="#db377d"/>
    </radialGradient>
  </defs>
  <g id="Layer_1-2" data-name="Layer 1">
    <g>
      <g>
        <path class="cls-11" d="m129.16,117.75l-112.54,55.63,201.65-56.37c40.38-16.45,70.94-28.73,70.94-28.74-18.99,3.28-92.85,16.97-160.05,29.48Z"/>
        <path class="cls-5" d="m32.1,236.38s6.3,25.65,11.35,46.25c.04-.02.1-.04.14-.05,4.01,13.08,17.06,21.07,30.5,18.79.07.12,256.95-62.37,256.95-62.37l-13.18-53.69L32.1,236.38Z"/>
        <path class="cls-1" d="m204.26,269.83l-.84.49-2.01,41.68s119.62-67.9,129-72.84c-6.79,1.65-66.21,16.11-126.14,30.67Z"/>
        <path class="cls-10" d="m16.62,173.38l13.54,55.18s281.47-68.61,281.63-67.96c.16.66-16.01-65.25-16.01-65.25L16.62,173.38Z"/>
        <path class="cls-12" d="m32.08,236.38l206.33-36.88c41.51-22.11,73.32-39.02,73.38-38.91-.11-.46-141.09,33.75-223.51,53.8l-56.2,21.98Z"/>
        <path class="cls-13" d="m202.63,270.23c66.02-16.08,128.4-31.23,128.4-31.23l-13.18-53.69-61.15,10.92c-12.41,31.76-31.37,57.46-54.08,73.99Z"/>
        <path class="cls-4" d="m264.66,171.68c28.09-6.75,47.1-11.24,47.13-11.08.16.66-16.01-65.25-16.01-65.25l-23.46,6.55c3.37,19.17,2.09,46.61-7.67,69.77Z"/>
        <path class="cls-8" d="m281.72,38.51c-3.87-13.41-15.17-22.84-30.99-18.95l-52.14,12.79c1.74,3.35,3.12,6.94,4.29,10.63.91,1.02,1.66,2.18,2.01,3.6,1.14,4.63-1.69,9.3-6.32,10.44-4.63,1.14-9.29-1.7-10.43-6.32-.42-1.74-.24-3.45.37-4.98.46,1.36.88,2.74,1.23,4.16l11.19-2.75C192.79,13.95,159.3-6.34,126.12,1.8c-33.18,8.14-53.47,41.63-45.33,74.81l9.48-2.33c.03.13.05.27.09.4l-.08.02c1.13,4.63-1.7,9.3-6.32,10.43-4.63,1.14-9.3-1.69-10.43-6.32-.81-3.29.45-6.53,2.85-8.58-.31-2.61-.46-5.2-.47-7.79l-55.43,13.6s.01.04.02.07c-.02,0-.05,0-.07,0-14.22,3.49-22.95,17.7-19.78,31.93-.02,0-.04,0-.06,0l7.91,32.23s285.21-53.38,285.37-52.73c.1.41-6.73-27.41-12.05-49.09-.03.02-.07.04-.1.05ZM129.38,13.3c21.72-5.33,43.61,4.45,54.6,22.63l-92.53,22.71c1.33-21.2,16.19-40.01,37.92-45.34Z"/>
      </g>
      <g>
        <path class="cls-2" d="m380.04,85.68h15.43l3.15,13.38h20.78v16.52h-18.5v38.01c0,7.71,3.33,11.57,9.99,11.57h8.5v16.53h-18.57c-13.85,0-20.78-7.43-20.78-22.27v-73.74Z"/>
        <path class="cls-2" d="m430.34,181.69v-82.64h16.13l2.6,10.54c7.24-7.03,14.9-10.54,22.98-10.54v16.84c-7.77,0-14.72,3.23-20.86,9.68v56.12h-20.85Z"/>
        <path class="cls-2" d="m515.49,99.06c25.08,0,37.62,12.8,37.62,38.4,0,3.41-.24,6.82-.71,10.23h-54.86c0,11.65,8.55,17.47,25.66,17.47,8.34,0,16.69-.78,25.03-2.36v16.52c-7.29,1.57-16.16,2.36-26.6,2.36-29.96,0-44.94-14.09-44.94-42.26s12.93-40.37,38.8-40.37Zm-17.94,34.15h35.26v-.63c0-11.44-5.77-17.16-17.31-17.16s-17,5.93-17.94,17.79Z"/>
        <path class="cls-2" d="m565.55,181.69v-82.64h16.13l2.6,12.12c7.92-8.08,16.95-12.12,27.07-12.12,19.57,0,29.35,10.18,29.35,30.53v52.1h-20.86v-52.1c0-9.13-4.54-13.69-13.62-13.69-6.77,0-13.38,2.7-19.83,8.1v57.69h-20.85Z"/>
        <path class="cls-2" d="m730.35,176.73c-12.64,3.31-25,4.96-37.07,4.96-26.7,0-40.06-14.33-40.06-42.97,0-26.45,13.06-39.67,39.19-39.67,5.55,0,11.25,1.31,17.08,3.93v-33.84h20.85v107.58Zm-20.85-56.11c-4.31-2.83-9.71-4.25-16.22-4.25-12.96,0-19.44,7.27-19.44,21.8,0,17.26,6.74,25.89,20.23,25.89,5.46,0,10.59-.76,15.43-2.28v-41.16Z"/>
        <path class="cls-2" d="m736.96,99.06h22.11l20.86,59.5,20.38-59.5h21.72l-34.32,85.07c-6.09,15.01-15.82,25.69-29.2,32.04l-10.07-14.25c9.23-4.04,15.95-10.62,20.14-19.75l-31.63-83.11Z"/>
        <path class="cls-7" d="m829.83,177.76v-7.87c9.18,3.15,18.21,4.72,27.07,4.72,17.37,0,26.05-5.51,26.05-16.52,0-8.92-6.43-13.38-19.28-13.38h-10.54c-17.32,0-25.97-7.34-25.97-22.04,0-15.74,11.46-23.61,34.39-23.61,8.82,0,17.81,1.31,26.99,3.93v7.87c-9.18-3.15-18.18-4.72-26.99-4.72-17.42,0-26.13,5.51-26.13,16.53,0,9.44,5.9,14.17,17.71,14.17h10.54c18.36,0,27.54,7.09,27.54,21.25,0,15.74-11.44,23.61-34.31,23.61-8.87,0-17.89-1.31-27.07-3.94Z"/>
        <path class="cls-3" d="m909.25,181.69v-112.54h8.26v38.88c9.65-5.98,19.55-8.97,29.67-8.97,20.09,0,30.14,10.26,30.14,30.77v51.86h-8.26v-55.25c0-13.33-7.42-19.99-22.27-19.99-9.92,0-19.68,3.49-29.28,10.47v64.77h-8.26Z"/>
        <path class="cls-6" d="m995.35,140.38c0-28.07,12.85-42.11,38.56-42.11s38.56,14.04,38.56,42.11-12.85,42.02-38.56,42.02-38.46-14.01-38.56-42.02Zm38.56,35.02c20.2,0,30.3-11.78,30.3-35.34s-10.1-34.7-30.3-34.7-30.3,11.57-30.3,34.7,10.1,35.34,30.3,35.34Z"/>
        <path class="cls-9" d="m1090.5,102.44c9.39-2.26,19.93-3.38,31.64-3.38,26.49,0,39.74,13.09,39.74,39.27,0,28.91-13.33,43.36-39.98,43.36-6.61,0-14.32-1.31-23.14-3.94v33.84h-8.26v-109.16Zm8.26,67.14c8.34,2.83,16.03,4.25,23.06,4.25,21.35,0,32.03-11.89,32.03-35.65,0-21.14-10.62-31.72-31.87-31.72-7.34,0-15.08.63-23.21,1.89v61.23Z"/>
      </g>
    </g>
  </g>
</svg>